# xmcd CD database file
#
# Track frame offsets:
#	150
#	23925
#	40177
#	55285
#	73425
#	86915
#	103585
#	130382
#	145097
#	160630
#	176992
#	195322
#	212522
#	232275
#	246762
#
# Disc length: 3516 seconds
#
# Revision: 0
# Processed by: cddbd v1.4PL0 Copyright (c) Steve Scherf et al.
# Submitted via: CDex 1.50Beta7
#
DISCID=de0dba0f
DTITLE=Lou Rawls - Don't Let Me Be Misunderstood
DYEAR=1900
DGENRE=Blues
TTITLE0=It's Supposed to Be Fun
TTITLE1=Don't Let Me Be Misunderstood
TTITLE2=All Around the World
TTITLE3=Good Morning Blues
TTITLE4=Moonglows
TTITLE5=Any Day Now
TTITLE6=This Bitter Earth
TTITLE7=If You Gotta Make a Fool of Somebody
TTITLE8=One More Time
TTITLE9=You're the One
TTITLE10=(I Wonder) Where Our Love Has Gone
TTITLE11=But I Do
TTITLE12=Goodnight My Love
TTITLE13=The Last Night of the World
TTITLE14=Love Me Tender
EXTD=
EXTT0=
EXTT1=
EXTT2=
EXTT3=
EXTT4=
EXTT5=
EXTT6=
EXTT7=
EXTT8=
EXTT9=
EXTT10=
EXTT11=
EXTT12=
EXTT13=
EXTT14=
PLAYORDER=
